<?xml version="1.0" encoding="UTF-8"?><svg id="Calque_2" xmlns="http://www.w3.org/2000/svg" viewBox="0 0 1165.81 1152.4"><defs><style>.cls-1{fill:#bb9e54;}.cls-1,.cls-2,.cls-3,.cls-4{stroke-width:0px;}.cls-2{fill:#fff;}.cls-3{fill:#831812;}.cls-4{fill:#bc7997;}</style></defs><g id="Calque_1-2"><path class="cls-2" d="m82.93,806.11c4.19.3,5.69,2.1,5.99,6.59.3,3.59.3,9.59.3,15.28,0,7.19,0,11.69-.3,15.28-.3,4.5-1.8,6.29-5.99,6.59-7.79.6-23.08.6-37.76.6s-29.96,0-37.76-.6c-4.2-.3-5.69-2.1-5.99-6.59-.3-3.59-.3-8.09-.3-15.28,0-5.7,0-11.69.3-15.28.3-4.5,1.8-6.29,5.99-6.59,7.79-.6,23.07-.6,37.76-.6s29.97,0,37.76.6Zm-3.9,58.74c6,.6,8.69,2.7,8.99,8.69.6,22.17.6,39.56.6,72.52s0,51.54-.6,73.72c-.3,5.99-3,8.09-8.99,8.69-7.19.9-21.28.9-33.86.9s-26.67,0-33.86-.9c-5.99-.6-8.69-2.7-8.99-8.69-.59-22.18-.59-39.56-.59-73.72s0-50.35.59-72.52c.3-5.99,3-8.09,8.99-8.69,7.19-.9,21.58-.9,33.86-.9s26.68,0,33.86.9Z"/><path class="cls-2" d="m364.01,1021.28c0,1.8-.3,3.3-1.5,4.5-1.49,1.5-3.89,2.4-8.39,2.7-8.39.6-20.67.9-32.36.9s-27.57,0-36.87-.9c-11.38-1.2-14.98-3.6-18.88-14.68l-26.37-75.22v78.82c0,7.49-2.7,10.19-8.99,10.79-6,.6-20.98,1.2-36.26,1.2s-29.97-.6-35.96-1.2c-6.29-.6-9.29-3.3-9.59-10.79-.9-24.27-.9-57.24-.9-92.9s0-68.63.9-92.9c.3-7.49,3.3-10.19,9.59-10.79,5.99-.6,20.98-1.2,35.96-1.2s30.27.6,36.26,1.2c6.29.6,8.99,3.3,8.99,10.79v78.81l26.37-75.22c3.89-11.09,7.49-13.49,18.88-14.68,9.3-.9,25.18-.9,36.87-.9s23.97.3,32.36.9c4.5.3,6.9,1.2,8.39,2.69,1.2,1.2,1.5,2.7,1.5,4.5,0,2.4-.6,5.39-3.3,11.99l-35.06,84.81,35.06,84.81c2.7,6.59,3.3,9.59,3.3,11.99Z"/><path class="cls-2" d="m495.56,806.11c4.19.3,5.69,2.1,5.99,6.59.3,3.59.3,9.59.3,15.28,0,7.19,0,11.69-.3,15.28-.3,4.5-1.8,6.29-5.99,6.59-7.79.6-23.08.6-37.76.6s-29.96,0-37.76-.6c-4.2-.3-5.69-2.1-6-6.59-.3-3.59-.3-8.09-.3-15.28,0-5.7,0-11.69.3-15.28.3-4.5,1.8-6.29,6-6.59,7.79-.6,23.07-.6,37.76-.6s29.97,0,37.76.6Zm-3.9,58.74c6,.6,8.69,2.7,8.99,8.69.6,22.17.6,39.56.6,72.52s0,51.54-.6,73.72c-.3,5.99-3,8.09-8.99,8.69-7.19.9-21.28.9-33.86.9s-26.67,0-33.86-.9c-5.99-.6-8.69-2.7-8.99-8.69-.6-22.18-.6-39.56-.6-73.72s0-50.35.6-72.52c.3-5.99,3-8.09,8.99-8.69,7.19-.9,21.58-.9,33.86-.9s26.68,0,33.86.9Z"/><path class="cls-2" d="m767.95,923.29c0,35.06-2.69,64.73-5.69,79.12-4.19,19.48-10.49,23.68-33.56,26.07-17.08,1.8-45.86,3-65.33,3s-48.25-1.2-65.33-3c-23.07-2.4-29.06-6.59-33.56-26.07-3.3-14.39-6.29-42.86-6.29-77.92s3-63.53,6.29-77.92c4.5-20.38,11.68-23.68,33.56-26.07,15.89-1.8,47.05-3,65.33-3s49.45,1.2,65.33,3c23.08,2.4,29.37,6.89,33.57,26.07,2.1,8.69,5.1,34.16,5.1,42.55,0,5.69-.6,7.49-5.39,7.79-7.79.6-29.07.6-39.86.6s-32.07,0-39.85-.6c-4.8-.3-5.39-1.2-5.7-4.8-.3-3.3-.3-10.49-.9-14.68-.3-3-1.2-4.19-4.79-4.79-1.49-.3-5.09-.6-7.49-.6s-6,.3-7.49.6c-3,.6-4.5,1.5-4.8,4.79-.89,11.99-.89,29.37-.89,47.05,0,15.88,0,36.56.89,50.05.3,3.6,1.8,4.5,4.8,4.79,1.49.3,5.09.6,7.79.6,3.3,0,7.19-.3,9.29-.6,3.3-.6,4.5-1.8,4.8-4.79.3-4.5.6-10.19.6-15.58-11.99-.3-14.68-1.2-14.98-5.99-.3-5.39-.3-11.99-.3-14.98,0-3.3,0-11.09.3-14.68.3-4.2,1.8-5.7,6-5.99,5.99-.3,38.95-.6,46.45-.6s40.16,0,46.15.6c4.19.3,5.99,2.1,5.99,5.99Z"/><path class="cls-2" d="m1030.45,1019.49c0,5.39-2.7,8.39-8.69,8.99-6,.6-22.78,1.2-36.56,1.2s-27.27-.3-33.27-.9c-9.89-.9-11.38-2.4-13.18-14.09l-2.7-17.38h-31.77l-2.7,17.38c-1.8,11.69-3.3,13.19-13.18,14.09-6,.6-19.48.9-33.27.9s-30.56-.6-36.56-1.2c-5.99-.6-8.69-3.6-8.69-8.99,0-4.79,1.49-12.29,3.29-19.78l39.56-169.92c1.49-6.89,5.39-9.29,12.58-9.59,7.19-.3,36.87-.9,54.84-.9s47.66.6,54.84.9c7.19.3,11.09,2.7,12.59,9.59l39.56,169.92c1.79,7.49,3.29,14.98,3.29,19.78Zm-121.07-71.62h21.57l-10.19-68.93h-1.2l-10.19,68.93Z"/><path class="cls-2" d="m1158.4,806.11c4.19.3,5.69,2.1,5.99,6.59.3,3.59.3,9.59.3,15.28,0,7.19,0,11.69-.3,15.28-.3,4.5-1.8,6.29-5.99,6.59-7.79.6-23.08.6-37.76.6s-29.96,0-37.76-.6c-4.2-.3-5.69-2.1-6-6.59-.3-3.59-.3-8.09-.3-15.28,0-5.7,0-11.69.3-15.28.3-4.5,1.8-6.29,6-6.59,7.79-.6,23.07-.6,37.76-.6s29.97,0,37.76.6Zm-3.9,58.74c6,.6,8.69,2.7,8.99,8.69.6,22.17.6,39.56.6,72.52s0,51.54-.6,73.72c-.3,5.99-3,8.09-8.99,8.69-7.19.9-21.28.9-33.86.9s-26.67,0-33.86-.9c-5.99-.6-8.69-2.7-8.99-8.69-.6-22.18-.6-39.56-.6-73.72s0-50.35.6-72.52c.3-5.99,3-8.09,8.99-8.69,7.19-.9,21.58-.9,33.86-.9s26.68,0,33.86.9Z"/><path class="cls-1" d="m413.66,1078.93v72.85h-7.39v-58.28l-28.62,49.02h-3.64l-28.62-48.7v57.97h-7.39v-72.85h6.35l31.64,54.01,31.32-54.01h6.35Z"/><path class="cls-1" d="m493.52,1132.32h-40.59l-8.74,19.46h-8.01l33.3-72.85h7.59l33.3,72.85h-8.12l-8.74-19.46Zm-2.81-6.25l-17.48-39.13-17.49,39.13h34.97Z"/><path class="cls-1" d="m593.77,1078.93v72.85h-6.35l-46.83-59.11v59.11h-7.7v-72.85h6.35l46.94,59.11v-59.11h7.6Z"/><path class="cls-1" d="m679.23,1115.35h7.39v27.79c-6.87,6.14-16.65,9.26-26.75,9.26-22.17,0-38.4-15.71-38.4-37.05s16.23-37.05,38.51-37.05c11.03,0,20.61,3.54,27.06,10.51l-4.78,4.89c-6.14-6.04-13.43-8.53-21.96-8.53-18,0-31.22,12.8-31.22,30.18s13.22,30.18,31.12,30.18c6.97,0,13.43-1.56,19.05-5.62v-24.56Z"/><path class="cls-1" d="m764.5,1132.32h-40.59l-8.74,19.46h-8.01l33.3-72.85h7.59l33.3,72.85h-8.12l-8.74-19.46Zm-2.81-6.25l-17.48-39.13-17.49,39.13h34.97Z"/><path class="cls-1" d="m834.57,1142.93l3.02-5.93c5.2,5.1,14.47,8.85,24.04,8.85,13.63,0,19.56-5.72,19.56-12.9,0-19.98-44.85-7.7-44.85-34.65,0-10.72,8.33-19.98,26.85-19.98,8.22,0,16.75,2.39,22.58,6.45l-2.6,6.14c-6.25-4.06-13.53-6.04-19.98-6.04-13.32,0-19.25,5.93-19.25,13.22,0,19.98,44.85,7.91,44.85,34.45,0,10.72-8.53,19.88-27.16,19.88-10.93,0-21.65-3.85-27.06-9.47Z"/><path class="cls-1" d="m976.86,1078.93v72.85h-7.6v-33.61h-45.58v33.61h-7.7v-72.85h7.7v32.47h45.58v-32.47h7.6Z"/><path class="cls-1" d="m1004.58,1115.35c0-21.23,16.23-37.05,38.3-37.05s38.19,15.71,38.19,37.05-16.34,37.05-38.19,37.05-38.3-15.82-38.3-37.05Zm68.79,0c0-17.38-13.01-30.18-30.49-30.18s-30.7,12.8-30.7,30.18,13.12,30.18,30.7,30.18,30.49-12.8,30.49-30.18Z"/><path class="cls-1" d="m1165.81,1103.91c0,15.51-11.24,24.87-29.77,24.87h-19.56v23h-7.7v-72.85h27.27c18.52,0,29.77,9.37,29.77,24.98Zm-7.7,0c0-11.65-7.7-18.32-22.27-18.32h-19.35v36.42h19.35c14.57,0,22.27-6.66,22.27-18.11Z"/><path class="cls-1" d="m27.93,1125.93l-4.14.75c-2.56-1.05-7.08-3.01-8.5-5.34,4.37-.9,8.58-2.18,12.72-3.69v-5.72l-3.99.3c-2.86-.9-5.65-2.86-7.98-4.67-2.64,5.35-8.66,10.84-14.98,10.84-.37,0-.75-.08-1.05-.08,5.19-5.65,8.81-12.72,10.84-20.17-.45-2.11-2.26-4.22-2.26-6.25.53.15,1.06.23,1.66.23.98,0,1.88-.23,2.63-.75,2.56.08,8.51,2.79,9.26,5.19-1.28,3.09-4.14,4.52-4.89,7.91,1.05.38,2.26.68,3.46.68,2.03,0,5.72-1.05,7.68-1.66.15-2.63.3-5.19.3-7.75,0-3.61-.08-8.43-2.03-11.52,1.73,0,3.31-1.13,4.97-1.13,2.41,0,7.75,2.64,8.73,4.89-.53,1.51-1.96,2.48-2.56,4.07-.53,1.58-.9,7.68-1.05,9.64,2.71-.53,7.38-3.54,9.79-3.54,3.08,0,8.81,2.18,8.81,5.87,0,1.2-.45,2.26-1.43,3.01-2.71.68-5.49.68-8.28,1.06-3.09.38-6.1,1.43-9.03,2.41l.15,5.27c1.5-.3,3.01-.75,4.44-1.36,3.61.08,7.98.6,7.98,5.12-1.81,3.69-9.41,2.79-12.57,4.22l-.45,9.71c2.94-.6,6.02-.75,9.03-.75,12.87,0,18.07,6.55,18.07,9.71,0,1.81-1.58,2.79-3.16,2.79-2.56,0-8.06-2.26-11.06-3.01-3.77-.83-7.75-1.28-11.67-1.28-6.85,0-15.88,1.36-22.28,4.07-1.66.6-3.84,2.33-5.57,2.64-3.54-1.05-7.53-5.42-8.13-9.03,1.96.45,4.14.9,6.25.9.08,0,8.88-2.56,9.94-2.86,3.46-.9,6.92-1.96,10.39-2.48v-8.2Z"/><path class="cls-1" d="m104.66,1105.91l-7.6,1.05h-.45c-3.24,0-7-4.21-8.81-6.47,5.27,0,9.48-1.66,14.45-2.79-1.13-2.48-2.18-4.89-3.24-7.23l-3.39-2.03c1.13-1.51,3.24-3.16,5.19-3.16s5.8,2.11,6.1,3.46c.52,2.63,1.2,4.67,2.18,7,1.43-.83,3.99-1.51,5.64-1.51,1.81.98,6.33,1.51,6.33,4.44,0,3.54-7.23,4.44-9.79,5.27l2.48,3.91c1.5-.45,6.4-2.64,7.53-2.64,2.71,0,7.68,1.28,7.68,4.59,0,.3-.08.83-.23,1.13-.6,1.36-8.13,2.48-10.01,3.46,2.03,3.39,6.55,7.45,6.55,11.37,0,2.03-1.5,2.93-3.46,2.93-2.41,0-12.19-3.99-14.75-5.27,1.81-.38,5.27-1.13,6.4-2.79-.98-1.58-1.88-3.09-3.01-4.59-2.64.9-16.56,6.02-18.06,6.02-2.48,0-6.25-5.04-7.45-7h1.28c7,0,14.08-2.64,20.63-4.97l-2.18-4.22Zm1.28,39.29c-6.85,0-16.26-2.11-16.26-10.76,0-2.41,1.73-5.57,4.14-6.4-.08.53-.15,1.13-.15,1.66,0,3.31,1.73,5.27,4.89,6.02.9.22,2.18.68,3.16.68,3.24,0,6.62-1.2,9.94-1.2,3.08,0,7.45.9,7.45,4.82,0,.3,0,.45-.08.75-2.11,3.76-9.11,4.44-13.1,4.44Z"/><path class="cls-1" d="m160.32,1115.54c-2.48-.53-6.77-3.91-7.75-6.32.83.15,1.65.15,2.56.15,4.89,0,9.86-2.93,14.08-5.27.6-1.28,2.79-10.39,2.79-10.99,0-1.51-.45-3.16-.9-4.59.45-.15.98-.23,1.43-.23,2.79,0,7,2.94,7,5.87,0,.23-2.33,7-2.56,7.68,2.56-.68,5.04-1.2,7.68-1.2,3.69,0,8.66,6.02,8.66,9.64,0,3.84-7.15,33.42-17.54,35.6-3.39-1.73-4.59-5.65-6.47-8.66-1.2-2.03-2.48-3.91-3.09-6.17,2.26.9,4.89,1.73,7.3,1.73,1.88,0,2.79-.53,3.99-1.96,2.48-3.01,6.32-15.13,6.32-19.05,0-.9-.08-2.11-.98-2.56-.37-.9-1.43-1.05-2.26-1.05-2.18,0-5.72,1.13-7.3,2.48-3.54,9.03-8.88,20.25-9.41,21.23-1.2,2.11-4.59,6.85-7.08,6.85-1.73-1.05-1.96-3.69-1.96-5.42,0-.98,0-2.11.23-2.86.45-2.11,4.82-7.08,6.25-9.48,1.36-2.41,2.56-4.82,3.84-7.23l-4.82,1.81Zm42.76-4.52c-1.73-4.29-5.57-7.3-8.13-11.07,8.13.75,19.05,5.95,19.05,15.51,0,2.26-.9,4.89-3.54,4.89-2.86,0-5.04-2.33-7.68-3.46-1.58-.68-3.09-1.28-4.67-1.96,2.11-.45,4.52-1.51,4.97-3.91Zm10.31-11.52c0,1.28-.68,3.16-2.18,3.16-4.07,0-6.7-5.27-8.73-8.13-.9-1.2-1.88-2.18-2.86-3.24,12.49,1.35,13.77,7.45,13.77,8.2Zm4.74-4.97c-.53,1.05-1.28,1.88-2.56,1.88-3.54,0-7.53-7.08-10.99-8.88.98-.08,1.88-.08,2.86-.08,4.52,0,10.69.98,10.69,6.92v.15Z"/><path class="cls-1" d="m248.04,1122.92c2.11-3.24,4.06-6.47,6.1-9.79-.6,3.84-1.13,7.98-1.28,11.9-.15,5.72-.3,9.11-1.81,11.06-.37.15-.9.23-1.43.23-.98,0-1.96-.3-2.79-.68-10.61-4.59-13.17-27.02-14.6-37.19,16.19,5.95,6.85,19.49,15.81,24.46Zm39.44-3.99c0,3.01-1.43,7.38-4.97,7.38-.98,0-2.33-1.65-2.71-2.41-1.13-1.81-1.43-3.61-1.81-5.49-1.2-6.02-5.35-12.8-9.56-17.24,8.89.9,19.04,8.13,19.04,17.77Z"/><path class="cls-4" d="m217.64,114.45s16.29,6.36,44.11-7.18c20.42-9.72,32.33-31.41,29.56-53.85l-2.54-20.63-21.13,7.36-1.13-22.34-20.07,5.41c-21.83,5.89-37.45,25.08-38.76,47.66-2.06,30.88,9.96,43.57,9.96,43.57Z"/><path class="cls-4" d="m166.61,151.28s7.32-.37,15.65-10.32c6.14-7.23,6.97-17.57,2.06-25.68l-4.52-7.46-6.82,6.45-4.27-8.35-6.75,5.52c-7.34,6-10.02,16.03-6.64,24.89,4.52,12.17,11.3,14.96,11.3,14.96Z"/><path class="cls-4" d="m880.02,610.34s7.68,9.63,29.42,11.21c15.88,1.29,30.8-7.72,37.04-22.38l5.74-13.47-15.48-2.98,7.2-14.02-14.14-3.79c-15.39-4.13-31.69,2.06-40.46,15.35-12.16,18.09-9.32,30.07-9.32,30.07Z"/><path class="cls-1" d="m523.39,248.86c1.88-2.46,3.79-4.9,5.75-7.29,1.99-2.43,4.01-4.84,6.1-7.2,10.62-12,22.39-22.97,35.09-32.76,2.61-2.01,5.24-3.98,7.92-5.89,2.79-1.98,5.61-3.92,8.48-5.79,15.94-10.35,33.1-18.85,51.13-25.2-4.76-6.95-9.9-13.65-15.38-20.06-27.29,8.32-53.88,21.52-78.71,40.05-3.01,2.24-5.99,4.57-8.94,6.97-1.04.85-2.09,1.69-3.12,2.56,0,0,0,0,0,0-1.83,1.53-3.64,3.09-5.44,4.68-2.46,2.17-4.92,4.33-7.34,6.62-10.6,10-20.11,20.76-28.62,32.07-2.07,2.75-4.1,5.52-6.04,8.34-1.96,2.84-3.8,5.73-5.63,8.62-16.11,25.51-27.33,53.39-33.71,82.23,8.79,12.89,18.84,24.9,29.99,35.78,3.74-45.33,21.35-88.1,48.47-123.74Z"/><path class="cls-1" d="m712.06,25.33c-175.5-71.33-375.61,13.13-446.94,188.64-71.33,175.51,13.12,375.62,188.63,446.95,175.51,71.34,375.63-13.12,446.96-188.63,71.33-175.51-13.12-375.62-188.64-446.96Zm28.93,588.12c33.74-46.34,52.18-103.22,51.23-161.01-5.91,4.12-12.02,7.94-18.24,11.58.05,1.34.17,2.67.2,4.02,2.74,56.88-15.65,110.47-47.89,153.49-10.67,5.51-21.68,10.44-33.02,14.72-60.27-5.32-115.13-34.88-154.9-78.2-1.82-1.98-3.62-3.97-5.37-6-1.76-2.05-3.5-4.11-5.19-6.21-5.13-6.35-9.97-12.94-14.45-19.76-1.4-2.13-2.72-4.31-4.05-6.49-1.3-2.11-2.56-4.24-3.8-6.38-10.23-17.83-18.22-36.93-23.57-56.86-15.04-9.91-29.08-21.33-41.87-34.14,3.53,33.71,13.46,66.82,29.84,97.14,1.24,2.3,2.59,4.54,3.9,6.81,1.33,2.29,2.67,4.57,4.07,6.83,3.98,6.39,8.26,12.64,12.85,18.71,1.73,2.29,3.54,4.52,5.36,6.76,1.79,2.21,3.6,4.42,5.47,6.59,5.46,6.29,11.24,12.39,17.42,18.22,38.2,36.09,81.97,57.63,126.78,66.73-20.31,4.14-41.33,6.32-62.85,6.32-115.29,0-215.96-62.34-270.33-155.11,45.21,32.93,100.44,51.42,156.78,51.42,1.43,0,2.86-.07,4.29-.1-4.14-5.94-7.98-12.07-11.64-18.33-1.34.05-2.67.17-4.02.2-3.74.18-7.47.27-11.18.27-52.71,0-102.13-18.04-142.32-48.16-5.51-10.67-10.44-21.67-14.71-33.01,5.32-60.29,34.88-115.16,78.21-154.93,2-1.84,4.03-3.64,6.09-5.41,2.05-1.77,4.1-3.53,6.22-5.23,6.32-5.09,12.89-9.86,19.66-14.31,2.09-1.37,4.19-2.72,6.31-4.03,2.11-1.3,4.26-2.54,6.41-3.77,17.89-10.28,37.03-18.35,57.04-23.72,9.9-15.02,21.3-29.04,34.1-41.81-33.71,3.53-66.83,13.46-97.15,29.84-2.3,1.24-4.55,2.59-6.82,3.91-2.28,1.33-4.56,2.66-6.81,4.06-6.35,3.96-12.56,8.21-18.6,12.77-2.33,1.76-4.6,3.6-6.88,5.45-2.24,1.82-4.48,3.65-6.68,5.55-6.25,5.44-12.32,11.19-18.12,17.33-36.16,38.27-57.64,82.15-66.68,127.06-4.18-20.39-6.37-41.51-6.37-63.14,0-115.29,62.33-215.96,155.1-270.33-33.73,46.34-52.18,103.22-51.23,161.01,5.91-4.12,12.02-7.94,18.24-11.58-.06-1.34-.17-2.67-.2-4.02-2.74-56.88,15.65-110.47,47.89-153.49,10.67-5.51,21.68-10.44,33.01-14.72,60.28,5.32,115.13,34.88,154.9,78.2,1.82,1.98,3.62,3.97,5.37,6,1.76,2.05,3.5,4.11,5.2,6.21,5.13,6.35,9.97,12.94,14.45,19.76,1.4,2.13,2.72,4.31,4.05,6.49,1.3,2.11,2.56,4.24,3.79,6.38,10.23,17.83,18.22,36.93,23.58,56.86,15.04,9.91,29.08,21.33,41.87,34.14-3.53-33.71-13.46-66.82-29.84-97.14-1.24-2.3-2.59-4.54-3.9-6.81-1.33-2.29-2.67-4.57-4.07-6.83-3.99-6.39-8.26-12.64-12.85-18.71-1.73-2.29-3.55-4.52-5.36-6.76-1.8-2.21-3.6-4.42-5.47-6.59-5.46-6.29-11.24-12.39-17.42-18.22-38.2-36.09-81.96-57.64-126.76-66.73,20.31-4.14,41.32-6.31,62.85-6.31,115.29,0,215.96,62.34,270.33,155.11-45.21-32.93-100.45-51.42-156.78-51.42-1.43,0-2.86.07-4.29.1,4.14,5.94,7.99,12.07,11.64,18.33,1.34-.05,2.67-.17,4.02-.2,3.74-.18,7.47-.27,11.18-.27,52.71,0,102.12,18.04,142.32,48.16,5.51,10.67,10.44,21.67,14.71,33.01-5.32,60.29-34.88,115.16-78.21,154.93-2,1.84-4.03,3.64-6.09,5.41-2.05,1.77-4.11,3.53-6.22,5.23-6.32,5.09-12.89,9.86-19.67,14.31-2.08,1.37-4.19,2.72-6.31,4.03-2.11,1.3-4.26,2.54-6.41,3.77-17.89,10.28-37.04,18.35-57.04,23.72-9.91,15.02-21.31,29.04-34.1,41.81,33.71-3.53,66.83-13.46,97.16-29.84,2.3-1.24,4.55-2.59,6.81-3.91,2.29-1.33,4.56-2.66,6.81-4.06,6.35-3.96,12.56-8.21,18.61-12.77,2.33-1.76,4.6-3.6,6.88-5.45,2.24-1.82,4.48-3.65,6.68-5.55,6.26-5.44,12.32-11.19,18.12-17.33,36.16-38.27,57.64-82.15,66.68-127.06,4.18,20.39,6.37,41.51,6.37,63.14,0,115.29-62.34,215.96-155.1,270.33Z"/><path class="cls-1" d="m554.42,235.26c44.96,3.92,87.38,21.42,122.75,48.35,2.44,1.86,4.87,3.74,7.24,5.69,2.43,1.99,4.83,4.02,7.18,6.1,12.02,10.63,23.02,22.41,32.82,35.13,2.01,2.61,3.99,5.23,5.89,7.92,1.99,2.8,3.9,5.66,5.77,8.54,10.47,16.14,19.08,33.51,25.45,51.79,6.93-4.71,13.59-9.82,19.98-15.24-8.29-27.54-21.54-54.35-40.22-79.4-2.28-3.06-4.51-6.14-6.96-9.15-2.29-2.82-4.8-5.55-7.24-8.32-2.21-2.51-4.29-5.06-6.62-7.52-10.01-10.61-20.77-20.13-32.09-28.64-2.82-2.12-5.66-4.21-8.55-6.2-2.82-1.94-5.7-3.77-8.58-5.58-25.2-15.88-52.71-27-81.17-33.39-12.82,8.79-24.79,18.82-35.67,29.92Z"/><path class="cls-3" d="m537.24,324.57c-10.25,25.22,1.89,53.97,27.1,64.22,25.22,10.25,53.98-1.88,64.23-27.1,10.25-25.22-1.89-53.97-27.11-64.23-25.22-10.25-53.97,1.89-64.22,27.11Z"/><path class="cls-1" d="m681.54,440.3c1.95-2.84,3.8-5.73,5.63-8.62,16.1-25.51,27.33-53.38,33.71-82.22-8.8-12.89-18.84-24.9-30-35.78-3.74,45.32-21.35,88.09-48.46,123.73-1.88,2.46-3.79,4.9-5.75,7.29-1.99,2.43-4.01,4.84-6.1,7.2-10.62,12-22.39,22.97-35.09,32.75-2.61,2.01-5.24,3.98-7.92,5.89-2.79,1.98-5.61,3.92-8.48,5.79-15.95,10.35-33.1,18.85-51.13,25.2,4.76,6.95,9.9,13.65,15.38,20.06,27.29-8.32,53.88-21.52,78.71-40.05,3.01-2.24,5.99-4.57,8.94-6.97,2.88-2.34,5.74-4.75,8.57-7.24,2.46-2.17,4.92-4.33,7.33-6.62,10.6-10,20.12-20.76,28.62-32.07,2.07-2.75,4.1-5.52,6.04-8.34Z"/><path class="cls-1" d="m611.38,450.99c-44.96-3.92-87.37-21.42-122.75-48.34-2.44-1.86-4.87-3.74-7.24-5.69-2.43-1.99-4.82-4.02-7.18-6.1-12.02-10.63-23.02-22.41-32.82-35.13-2.01-2.61-3.99-5.23-5.89-7.92-1.99-2.8-3.9-5.66-5.78-8.55-10.47-16.14-19.08-33.51-25.44-51.79-6.94,4.71-13.59,9.82-19.98,15.24,8.29,27.54,21.54,54.35,40.22,79.4,2.28,3.06,4.51,6.14,6.96,9.15,2.29,2.82,4.8,5.55,7.24,8.32,2.21,2.51,4.29,5.06,6.62,7.52,10.01,10.61,20.77,20.13,32.09,28.64,2.82,2.12,5.66,4.21,8.56,6.2,2.82,1.94,5.69,3.77,8.57,5.58,25.2,15.88,52.71,27,81.17,33.39,12.82-8.79,24.79-18.82,35.67-29.92Z"/></g></svg>